<svg version="1.1" xmlns="http://www.w3.org/2000/svg" xmlns:xlink="http://www.w3.org/1999/xlink" width="761" height="739"><defs/><g><text fill="#eeeeee" stroke="none" font-family="Arial" font-size="24px" font-style="normal" font-weight="normal" text-decoration="none" x="0" y="0">UNREGISTERED</text><text fill="#eeeeee" stroke="none" font-family="Arial" font-size="24px" font-style="normal" font-weight="normal" text-decoration="none" x="0" y="30">UNREGISTERED</text><text fill="#eeeeee" stroke="none" font-family="Arial" font-size="24px" font-style="normal" font-weight="normal" text-decoration="none" x="0" y="60">UNREGISTERED</text><text fill="#eeeeee" stroke="none" font-family="Arial" font-size="24px" font-style="normal" font-weight="normal" text-decoration="none" x="0" y="90">UNREGISTERED</text><text fill="#eeeeee" stroke="none" font-family="Arial" font-size="24px" font-style="normal" font-weight="normal" text-decoration="none" x="0" y="120">UNREGISTERED</text><text fill="#eeeeee" stroke="none" font-family="Arial" font-size="24px" font-style="normal" font-weight="normal" text-decoration="none" x="0" y="150">UNREGISTERED</text><text fill="#eeeeee" stroke="none" font-family="Arial" font-size="24px" font-style="normal" font-weight="normal" text-decoration="none" x="0" y="180">UNREGISTERED</text><text fill="#eeeeee" stroke="none" font-family="Arial" font-size="24px" font-style="normal" font-weight="normal" text-decoration="none" x="0" y="210">UNREGISTERED</text><text fill="#eeeeee" stroke="none" font-family="Arial" font-size="24px" font-style="normal" font-weight="normal" text-decoration="none" x="0" y="240">UNREGISTERED</text><text fill="#eeeeee" stroke="none" font-family="Arial" font-size="24px" font-style="normal" font-weight="normal" text-decoration="none" x="0" y="270">UNREGISTERED</text><text fill="#eeeeee" stroke="none" font-family="Arial" font-size="24px" font-style="normal" font-weight="normal" text-decoration="none" x="0" y="300">UNREGISTERED</text><text fill="#eeeeee" stroke="none" font-family="Arial" font-size="24px" font-style="normal" font-weight="normal" text-decoration="none" x="0" y="330">UNREGISTERED</text><text fill="#eeeeee" stroke="none" font-family="Arial" font-size="24px" font-style="normal" font-weight="normal" text-decoration="none" x="0" y="360">UNREGISTERED</text><text fill="#eeeeee" stroke="none" font-family="Arial" font-size="24px" font-style="normal" font-weight="normal" text-decoration="none" x="0" y="390">UNREGISTERED</text><text fill="#eeeeee" stroke="none" font-family="Arial" font-size="24px" font-style="normal" font-weight="normal" text-decoration="none" x="0" y="420">UNREGISTERED</text><text fill="#eeeeee" stroke="none" font-family="Arial" font-size="24px" font-style="normal" font-weight="normal" text-decoration="none" x="0" y="450">UNREGISTERED</text><text fill="#eeeeee" stroke="none" font-family="Arial" font-size="24px" font-style="normal" font-weight="normal" text-decoration="none" x="0" y="480">UNREGISTERED</text><text fill="#eeeeee" stroke="none" font-family="Arial" font-size="24px" font-style="normal" font-weight="normal" text-decoration="none" x="0" y="510">UNREGISTERED</text><text fill="#eeeeee" stroke="none" font-family="Arial" font-size="24px" font-style="normal" font-weight="normal" text-decoration="none" x="0" y="540">UNREGISTERED</text><text fill="#eeeeee" stroke="none" font-family="Arial" font-size="24px" font-style="normal" font-weight="normal" text-decoration="none" x="0" y="570">UNREGISTERED</text><text fill="#eeeeee" stroke="none" font-family="Arial" font-size="24px" font-style="normal" font-weight="normal" text-decoration="none" x="0" y="600">UNREGISTERED</text><text fill="#eeeeee" stroke="none" font-family="Arial" font-size="24px" font-style="normal" font-weight="normal" text-decoration="none" x="0" y="630">UNREGISTERED</text><text fill="#eeeeee" stroke="none" font-family="Arial" font-size="24px" font-style="normal" font-weight="normal" text-decoration="none" x="0" y="660">UNREGISTERED</text><text fill="#eeeeee" stroke="none" font-family="Arial" font-size="24px" font-style="normal" font-weight="normal" text-decoration="none" x="0" y="690">UNREGISTERED</text><text fill="#eeeeee" stroke="none" font-family="Arial" font-size="24px" font-style="normal" font-weight="normal" text-decoration="none" x="0" y="720">UNREGISTERED</text><text fill="#eeeeee" stroke="none" font-family="Arial" font-size="24px" font-style="normal" font-weight="normal" text-decoration="none" x="200" y="0">UNREGISTERED</text><text fill="#eeeeee" stroke="none" font-family="Arial" font-size="24px" font-style="normal" font-weight="normal" text-decoration="none" x="200" y="30">UNREGISTERED</text><text fill="#eeeeee" stroke="none" font-family="Arial" font-size="24px" font-style="normal" font-weight="normal" text-decoration="none" x="200" y="60">UNREGISTERED</text><text fill="#eeeeee" stroke="none" font-family="Arial" font-size="24px" font-style="normal" font-weight="normal" text-decoration="none" x="200" y="90">UNREGISTERED</text><text fill="#eeeeee" stroke="none" font-family="Arial" font-size="24px" font-style="normal" font-weight="normal" text-decoration="none" x="200" y="120">UNREGISTERED</text><text fill="#eeeeee" stroke="none" font-family="Arial" font-size="24px" font-style="normal" font-weight="normal" text-decoration="none" x="200" y="150">UNREGISTERED</text><text fill="#eeeeee" stroke="none" font-family="Arial" font-size="24px" font-style="normal" font-weight="normal" text-decoration="none" x="200" y="180">UNREGISTERED</text><text fill="#eeeeee" stroke="none" font-family="Arial" font-size="24px" font-style="normal" font-weight="normal" text-decoration="none" x="200" y="210">UNREGISTERED</text><text fill="#eeeeee" stroke="none" font-family="Arial" font-size="24px" font-style="normal" font-weight="normal" text-decoration="none" x="200" y="240">UNREGISTERED</text><text fill="#eeeeee" stroke="none" font-family="Arial" font-size="24px" font-style="normal" font-weight="normal" text-decoration="none" x="200" y="270">UNREGISTERED</text><text fill="#eeeeee" stroke="none" font-family="Arial" font-size="24px" font-style="normal" font-weight="normal" text-decoration="none" x="200" y="300">UNREGISTERED</text><text fill="#eeeeee" stroke="none" font-family="Arial" font-size="24px" font-style="normal" font-weight="normal" text-decoration="none" x="200" y="330">UNREGISTERED</text><text fill="#eeeeee" stroke="none" font-family="Arial" font-size="24px" font-style="normal" font-weight="normal" text-decoration="none" x="200" y="360">UNREGISTERED</text><text fill="#eeeeee" stroke="none" font-family="Arial" font-size="24px" font-style="normal" font-weight="normal" text-decoration="none" x="200" y="390">UNREGISTERED</text><text fill="#eeeeee" stroke="none" font-family="Arial" font-size="24px" font-style="normal" font-weight="normal" text-decoration="none" x="200" y="420">UNREGISTERED</text><text fill="#eeeeee" stroke="none" font-family="Arial" font-size="24px" font-style="normal" font-weight="normal" text-decoration="none" x="200" y="450">UNREGISTERED</text><text fill="#eeeeee" stroke="none" font-family="Arial" font-size="24px" font-style="normal" font-weight="normal" text-decoration="none" x="200" y="480">UNREGISTERED</text><text fill="#eeeeee" stroke="none" font-family="Arial" font-size="24px" font-style="normal" font-weight="normal" text-decoration="none" x="200" y="510">UNREGISTERED</text><text fill="#eeeeee" stroke="none" font-family="Arial" font-size="24px" font-style="normal" font-weight="normal" text-decoration="none" x="200" y="540">UNREGISTERED</text><text fill="#eeeeee" stroke="none" font-family="Arial" font-size="24px" font-style="normal" font-weight="normal" text-decoration="none" x="200" y="570">UNREGISTERED</text><text fill="#eeeeee" stroke="none" font-family="Arial" font-size="24px" font-style="normal" font-weight="normal" text-decoration="none" x="200" y="600">UNREGISTERED</text><text fill="#eeeeee" stroke="none" font-family="Arial" font-size="24px" font-style="normal" font-weight="normal" text-decoration="none" x="200" y="630">UNREGISTERED</text><text fill="#eeeeee" stroke="none" font-family="Arial" font-size="24px" font-style="normal" font-weight="normal" text-decoration="none" x="200" y="660">UNREGISTERED</text><text fill="#eeeeee" stroke="none" font-family="Arial" font-size="24px" font-style="normal" font-weight="normal" text-decoration="none" x="200" y="690">UNREGISTERED</text><text fill="#eeeeee" stroke="none" font-family="Arial" font-size="24px" font-style="normal" font-weight="normal" text-decoration="none" x="200" y="720">UNREGISTERED</text><text fill="#eeeeee" stroke="none" font-family="Arial" font-size="24px" font-style="normal" font-weight="normal" text-decoration="none" x="400" y="0">UNREGISTERED</text><text fill="#eeeeee" stroke="none" font-family="Arial" font-size="24px" font-style="normal" font-weight="normal" text-decoration="none" x="400" y="30">UNREGISTERED</text><text fill="#eeeeee" stroke="none" font-family="Arial" font-size="24px" font-style="normal" font-weight="normal" text-decoration="none" x="400" y="60">UNREGISTERED</text><text fill="#eeeeee" stroke="none" font-family="Arial" font-size="24px" font-style="normal" font-weight="normal" text-decoration="none" x="400" y="90">UNREGISTERED</text><text fill="#eeeeee" stroke="none" font-family="Arial" font-size="24px" font-style="normal" font-weight="normal" text-decoration="none" x="400" y="120">UNREGISTERED</text><text fill="#eeeeee" stroke="none" font-family="Arial" font-size="24px" font-style="normal" font-weight="normal" text-decoration="none" x="400" y="150">UNREGISTERED</text><text fill="#eeeeee" stroke="none" font-family="Arial" font-size="24px" font-style="normal" font-weight="normal" text-decoration="none" x="400" y="180">UNREGISTERED</text><text fill="#eeeeee" stroke="none" font-family="Arial" font-size="24px" font-style="normal" font-weight="normal" text-decoration="none" x="400" y="210">UNREGISTERED</text><text fill="#eeeeee" stroke="none" font-family="Arial" font-size="24px" font-style="normal" font-weight="normal" text-decoration="none" x="400" y="240">UNREGISTERED</text><text fill="#eeeeee" stroke="none" font-family="Arial" font-size="24px" font-style="normal" font-weight="normal" text-decoration="none" x="400" y="270">UNREGISTERED</text><text fill="#eeeeee" stroke="none" font-family="Arial" font-size="24px" font-style="normal" font-weight="normal" text-decoration="none" x="400" y="300">UNREGISTERED</text><text fill="#eeeeee" stroke="none" font-family="Arial" font-size="24px" font-style="normal" font-weight="normal" text-decoration="none" x="400" y="330">UNREGISTERED</text><text fill="#eeeeee" stroke="none" font-family="Arial" font-size="24px" font-style="normal" font-weight="normal" text-decoration="none" x="400" y="360">UNREGISTERED</text><text fill="#eeeeee" stroke="none" font-family="Arial" font-size="24px" font-style="normal" font-weight="normal" text-decoration="none" x="400" y="390">UNREGISTERED</text><text fill="#eeeeee" stroke="none" font-family="Arial" font-size="24px" font-style="normal" font-weight="normal" text-decoration="none" x="400" y="420">UNREGISTERED</text><text fill="#eeeeee" stroke="none" font-family="Arial" font-size="24px" font-style="normal" font-weight="normal" text-decoration="none" x="400" y="450">UNREGISTERED</text><text fill="#eeeeee" stroke="none" font-family="Arial" font-size="24px" font-style="normal" font-weight="normal" text-decoration="none" x="400" y="480">UNREGISTERED</text><text fill="#eeeeee" stroke="none" font-family="Arial" font-size="24px" font-style="normal" font-weight="normal" text-decoration="none" x="400" y="510">UNREGISTERED</text><text fill="#eeeeee" stroke="none" font-family="Arial" font-size="24px" font-style="normal" font-weight="normal" text-decoration="none" x="400" y="540">UNREGISTERED</text><text fill="#eeeeee" stroke="none" font-family="Arial" font-size="24px" font-style="normal" font-weight="normal" text-decoration="none" x="400" y="570">UNREGISTERED</text><text fill="#eeeeee" stroke="none" font-family="Arial" font-size="24px" font-style="normal" font-weight="normal" text-decoration="none" x="400" y="600">UNREGISTERED</text><text fill="#eeeeee" stroke="none" font-family="Arial" font-size="24px" font-style="normal" font-weight="normal" text-decoration="none" x="400" y="630">UNREGISTERED</text><text fill="#eeeeee" stroke="none" font-family="Arial" font-size="24px" font-style="normal" font-weight="normal" text-decoration="none" x="400" y="660">UNREGISTERED</text><text fill="#eeeeee" stroke="none" font-family="Arial" font-size="24px" font-style="normal" font-weight="normal" text-decoration="none" x="400" y="690">UNREGISTERED</text><text fill="#eeeeee" stroke="none" font-family="Arial" font-size="24px" font-style="normal" font-weight="normal" text-decoration="none" x="400" y="720">UNREGISTERED</text><text fill="#eeeeee" stroke="none" font-family="Arial" font-size="24px" font-style="normal" font-weight="normal" text-decoration="none" x="600" y="0">UNREGISTERED</text><text fill="#eeeeee" stroke="none" font-family="Arial" font-size="24px" font-style="normal" font-weight="normal" text-decoration="none" x="600" y="30">UNREGISTERED</text><text fill="#eeeeee" stroke="none" font-family="Arial" font-size="24px" font-style="normal" font-weight="normal" text-decoration="none" x="600" y="60">UNREGISTERED</text><text fill="#eeeeee" stroke="none" font-family="Arial" font-size="24px" font-style="normal" font-weight="normal" text-decoration="none" x="600" y="90">UNREGISTERED</text><text fill="#eeeeee" stroke="none" font-family="Arial" font-size="24px" font-style="normal" font-weight="normal" text-decoration="none" x="600" y="120">UNREGISTERED</text><text fill="#eeeeee" stroke="none" font-family="Arial" font-size="24px" font-style="normal" font-weight="normal" text-decoration="none" x="600" y="150">UNREGISTERED</text><text fill="#eeeeee" stroke="none" font-family="Arial" font-size="24px" font-style="normal" font-weight="normal" text-decoration="none" x="600" y="180">UNREGISTERED</text><text fill="#eeeeee" stroke="none" font-family="Arial" font-size="24px" font-style="normal" font-weight="normal" text-decoration="none" x="600" y="210">UNREGISTERED</text><text fill="#eeeeee" stroke="none" font-family="Arial" font-size="24px" font-style="normal" font-weight="normal" text-decoration="none" x="600" y="240">UNREGISTERED</text><text fill="#eeeeee" stroke="none" font-family="Arial" font-size="24px" font-style="normal" font-weight="normal" text-decoration="none" x="600" y="270">UNREGISTERED</text><text fill="#eeeeee" stroke="none" font-family="Arial" font-size="24px" font-style="normal" font-weight="normal" text-decoration="none" x="600" y="300">UNREGISTERED</text><text fill="#eeeeee" stroke="none" font-family="Arial" font-size="24px" font-style="normal" font-weight="normal" text-decoration="none" x="600" y="330">UNREGISTERED</text><text fill="#eeeeee" stroke="none" font-family="Arial" font-size="24px" font-style="normal" font-weight="normal" text-decoration="none" x="600" y="360">UNREGISTERED</text><text fill="#eeeeee" stroke="none" font-family="Arial" font-size="24px" font-style="normal" font-weight="normal" text-decoration="none" x="600" y="390">UNREGISTERED</text><text fill="#eeeeee" stroke="none" font-family="Arial" font-size="24px" font-style="normal" font-weight="normal" text-decoration="none" x="600" y="420">UNREGISTERED</text><text fill="#eeeeee" stroke="none" font-family="Arial" font-size="24px" font-style="normal" font-weight="normal" text-decoration="none" x="600" y="450">UNREGISTERED</text><text fill="#eeeeee" stroke="none" font-family="Arial" font-size="24px" font-style="normal" font-weight="normal" text-decoration="none" x="600" y="480">UNREGISTERED</text><text fill="#eeeeee" stroke="none" font-family="Arial" font-size="24px" font-style="normal" font-weight="normal" text-decoration="none" x="600" y="510">UNREGISTERED</text><text fill="#eeeeee" stroke="none" font-family="Arial" font-size="24px" font-style="normal" font-weight="normal" text-decoration="none" x="600" y="540">UNREGISTERED</text><text fill="#eeeeee" stroke="none" font-family="Arial" font-size="24px" font-style="normal" font-weight="normal" text-decoration="none" x="600" y="570">UNREGISTERED</text><text fill="#eeeeee" stroke="none" font-family="Arial" font-size="24px" font-style="normal" font-weight="normal" text-decoration="none" x="600" y="600">UNREGISTERED</text><text fill="#eeeeee" stroke="none" font-family="Arial" font-size="24px" font-style="normal" font-weight="normal" text-decoration="none" x="600" y="630">UNREGISTERED</text><text fill="#eeeeee" stroke="none" font-family="Arial" font-size="24px" font-style="normal" font-weight="normal" text-decoration="none" x="600" y="660">UNREGISTERED</text><text fill="#eeeeee" stroke="none" font-family="Arial" font-size="24px" font-style="normal" font-weight="normal" text-decoration="none" x="600" y="690">UNREGISTERED</text><text fill="#eeeeee" stroke="none" font-family="Arial" font-size="24px" font-style="normal" font-weight="normal" text-decoration="none" x="600" y="720">UNREGISTERED</text><g transform="translate(10,-22) scale(1,1)"><rect fill="#C0C0C0" stroke="none" x="174" y="39" width="128" height="32" opacity="0.2"/></g><g transform="translate(10,-22) scale(1,1)"><rect fill="#c598ae" stroke="none" x="167" y="32" width="128" height="32"/></g><g transform="translate(10,-22) scale(1,1)"><path fill="none" stroke="#e4ad0c" d="M 167 32 L 295 32 L 295 64 L 167 64 L 167 32 Z Z" stroke-miterlimit="10"/></g><g transform="translate(10,-22) scale(1,1)"><g><path fill="none" stroke="none"/><text fill="#000000" stroke="none" font-family="Roboto" font-size="13px" font-style="normal" font-weight="bold" text-decoration="none" x="183.890869140625" y="51.5">폰북 유스케이스</text></g></g><g transform="translate(10,-22) scale(1,1)"><path fill="#ffffff" stroke="none" d="M 16.40935031960227 241.68 C 16.40935031960227 236.886167936 20.295192644547726 233 25.088623046875 233 C 29.882053449202274 233 33.76789577414773 236.886167936 33.76789577414773 241.68 C 33.76789577414773 246.47383206400002 29.882053449202274 250.36 25.088623046875 250.36 C 20.295192644547726 250.36 16.40935031960227 246.47383206400002 16.40935031960227 241.68 Z"/></g><g transform="translate(10,-22) scale(1,1)"><path fill="none" stroke="#409486" d="M 16.40935031960227 241.68 C 16.40935031960227 236.886167936 20.295192644547726 233 25.088623046875 233 C 29.882053449202274 233 33.76789577414773 236.886167936 33.76789577414773 241.68 C 33.76789577414773 246.47383206400002 29.882053449202274 250.36 25.088623046875 250.36 C 20.295192644547726 250.36 16.40935031960227 246.47383206400002 16.40935031960227 241.68 Z" stroke-miterlimit="10"/></g><g transform="translate(10,-22) scale(1,1)"><path fill="none" stroke="#409486" d="M 25.088623046875 250.36 L 25.088623046875 267.64" stroke-miterlimit="10"/></g><g transform="translate(10,-22) scale(1,1)"><path fill="none" stroke="#409486" d="M 15.898804865056817 256.84 L 34.27844122869318 256.84" stroke-miterlimit="10"/></g><g transform="translate(10,-22) scale(1,1)"><path fill="none" stroke="#409486" d="M 25.088623046875 267.64 L 12.324986683238635 285" stroke-miterlimit="10"/></g><g transform="translate(10,-22) scale(1,1)"><path fill="none" stroke="#409486" d="M 25.088623046875 267.64 L 37.852259410511365 285" stroke-miterlimit="10"/></g><g transform="translate(10,-22) scale(1,1)"><g><path fill="none" stroke="none"/><text fill="#000000" stroke="none" font-family="Arial" font-size="13px" font-style="normal" font-weight="bold" text-decoration="none" x="5.588623046875" y="305.5">사용자</text></g></g><g transform="translate(10,-22) scale(1,1)"><path fill="#C0C0C0" stroke="none" d="M 335 112 C 335 102.6111584 375.9659408 95 426.5 95 C 477.0340592 95 518 102.6111584 518 112 C 518 121.3888416 477.0340592 129 426.5 129 C 375.9659408 129 335 121.3888416 335 112 Z" opacity="0.2"/></g><g transform="translate(10,-22) scale(1,1)"><path fill="#799e97" stroke="none" d="M 328 105 C 328 95.6111584 368.9659408 88 419.5 88 C 470.0340592 88 511 95.6111584 511 105 C 511 114.3888416 470.0340592 122 419.5 122 C 368.9659408 122 328 114.3888416 328 105 Z"/></g><g transform="translate(10,-22) scale(1,1)"><path fill="none" stroke="#000000" d="M 328 105 C 328 95.6111584 368.9659408 88 419.5 88 C 470.0340592 88 511 95.6111584 511 105 C 511 114.3888416 470.0340592 122 419.5 122 C 368.9659408 122 328 114.3888416 328 105 Z" stroke-miterlimit="10"/></g><g transform="translate(10,-22) scale(1,1)"><g><path fill="none" stroke="none"/><text fill="#000000" stroke="none" font-family="Arial" font-size="13px" font-style="normal" font-weight="bold" text-decoration="none" x="365.694091796875" y="112">대학친구 정보저장</text></g></g><g transform="translate(10,-22) scale(1,1)"><path fill="#C0C0C0" stroke="none" d="M 335 179 C 335 169.6111584 375.9659408 162 426.5 162 C 477.0340592 162 518 169.6111584 518 179 C 518 188.3888416 477.0340592 196 426.5 196 C 375.9659408 196 335 188.3888416 335 179 Z" opacity="0.2"/></g><g transform="translate(10,-22) scale(1,1)"><path fill="#ffffff" stroke="none" d="M 328 172 C 328 162.6111584 368.9659408 155 419.5 155 C 470.0340592 155 511 162.6111584 511 172 C 511 181.3888416 470.0340592 189 419.5 189 C 368.9659408 189 328 181.3888416 328 172 Z"/></g><g transform="translate(10,-22) scale(1,1)"><path fill="none" stroke="#ce9f71" d="M 328 172 C 328 162.6111584 368.9659408 155 419.5 155 C 470.0340592 155 511 162.6111584 511 172 C 511 181.3888416 470.0340592 189 419.5 189 C 368.9659408 189 328 181.3888416 328 172 Z" stroke-miterlimit="10"/></g><g transform="translate(10,-22) scale(1,1)"><g><path fill="none" stroke="none"/><text fill="#000000" stroke="none" font-family="Arial" font-size="13px" font-style="normal" font-weight="bold" text-decoration="none" x="365.694091796875" y="179">회사친구 정보저장</text></g></g><g transform="translate(10,-22) scale(1,1)"><path fill="#C0C0C0" stroke="none" d="M 335 246 C 335 236.6111584 375.9659408 229 426.5 229 C 477.0340592 229 518 236.6111584 518 246 C 518 255.3888416 477.0340592 263 426.5 263 C 375.9659408 263 335 255.3888416 335 246 Z" opacity="0.2"/></g><g transform="translate(10,-22) scale(1,1)"><path fill="#ffffff" stroke="none" d="M 328 239 C 328 229.6111584 368.9659408 222 419.5 222 C 470.0340592 222 511 229.6111584 511 239 C 511 248.3888416 470.0340592 256 419.5 256 C 368.9659408 256 328 248.3888416 328 239 Z"/></g><g transform="translate(10,-22) scale(1,1)"><path fill="none" stroke="#5050a2" d="M 328 239 C 328 229.6111584 368.9659408 222 419.5 222 C 470.0340592 222 511 229.6111584 511 239 C 511 248.3888416 470.0340592 256 419.5 256 C 368.9659408 256 328 248.3888416 328 239 Z" stroke-miterlimit="10"/></g><g transform="translate(10,-22) scale(1,1)"><g><path fill="none" stroke="none"/><text fill="#000000" stroke="none" font-family="Arial" font-size="13px" font-style="normal" font-weight="bold" text-decoration="none" x="359.194091796875" y="246">동호회친구 정보저장</text></g></g><g transform="translate(10,-22) scale(1,1)"><path fill="#C0C0C0" stroke="none" d="M 335 380 C 335 370.6111584 375.9659408 363 426.5 363 C 477.0340592 363 518 370.6111584 518 380 C 518 389.3888416 477.0340592 397 426.5 397 C 375.9659408 397 335 389.3888416 335 380 Z" opacity="0.2"/></g><g transform="translate(10,-22) scale(1,1)"><path fill="#ffffff" stroke="none" d="M 328 373 C 328 363.6111584 368.9659408 356 419.5 356 C 470.0340592 356 511 363.6111584 511 373 C 511 382.3888416 470.0340592 390 419.5 390 C 368.9659408 390 328 382.3888416 328 373 Z"/></g><g transform="translate(10,-22) scale(1,1)"><path fill="none" stroke="#000000" d="M 328 373 C 328 363.6111584 368.9659408 356 419.5 356 C 470.0340592 356 511 363.6111584 511 373 C 511 382.3888416 470.0340592 390 419.5 390 C 368.9659408 390 328 382.3888416 328 373 Z" stroke-miterlimit="10"/></g><g transform="translate(10,-22) scale(1,1)"><g><path fill="none" stroke="none"/><text fill="#000000" stroke="none" font-family="Arial" font-size="13px" font-style="normal" font-weight="bold" text-decoration="none" x="393.5" y="380">정보검색</text></g></g><g transform="translate(10,-22) scale(1,1)"><path fill="#C0C0C0" stroke="none" d="M 335 447 C 335 437.6111584 375.9659408 430 426.5 430 C 477.0340592 430 518 437.6111584 518 447 C 518 456.3888416 477.0340592 464 426.5 464 C 375.9659408 464 335 456.3888416 335 447 Z" opacity="0.2"/></g><g transform="translate(10,-22) scale(1,1)"><path fill="#ffffff" stroke="none" d="M 328 440 C 328 430.6111584 368.9659408 423 419.5 423 C 470.0340592 423 511 430.6111584 511 440 C 511 449.3888416 470.0340592 457 419.5 457 C 368.9659408 457 328 449.3888416 328 440 Z"/></g><g transform="translate(10,-22) scale(1,1)"><path fill="none" stroke="#000000" d="M 328 440 C 328 430.6111584 368.9659408 423 419.5 423 C 470.0340592 423 511 430.6111584 511 440 C 511 449.3888416 470.0340592 457 419.5 457 C 368.9659408 457 328 449.3888416 328 440 Z" stroke-miterlimit="10"/></g><g transform="translate(10,-22) scale(1,1)"><g><path fill="none" stroke="none"/><text fill="#000000" stroke="none" font-family="Arial" font-size="13px" font-style="normal" font-weight="bold" text-decoration="none" x="393.5" y="447">정보삭제</text></g></g><g transform="translate(10,-22) scale(1,1)"><path fill="#C0C0C0" stroke="none" d="M 335 514 C 335 504.6111584 375.9659408 497 426.5 497 C 477.0340592 497 518 504.6111584 518 514 C 518 523.3888416 477.0340592 531 426.5 531 C 375.9659408 531 335 523.3888416 335 514 Z" opacity="0.2"/></g><g transform="translate(10,-22) scale(1,1)"><path fill="#ffffff" stroke="none" d="M 328 507 C 328 497.6111584 368.9659408 490 419.5 490 C 470.0340592 490 511 497.6111584 511 507 C 511 516.3888416 470.0340592 524 419.5 524 C 368.9659408 524 328 516.3888416 328 507 Z"/></g><g transform="translate(10,-22) scale(1,1)"><path fill="none" stroke="#000000" d="M 328 507 C 328 497.6111584 368.9659408 490 419.5 490 C 470.0340592 490 511 497.6111584 511 507 C 511 516.3888416 470.0340592 524 419.5 524 C 368.9659408 524 328 516.3888416 328 507 Z" stroke-miterlimit="10"/></g><g transform="translate(10,-22) scale(1,1)"><g><path fill="none" stroke="none"/><text fill="#000000" stroke="none" font-family="Arial" font-size="13px" font-style="normal" font-weight="bold" text-decoration="none" x="393.5" y="514">파일저장</text></g></g><g transform="translate(10,-22) scale(1,1)"><path fill="#c77b7b" stroke="none" d="M 120.40935031960228 169.68 C 120.40935031960228 164.886167936 124.29519264454774 161 129.088623046875 161 C 133.88205344920226 161 137.76789577414772 164.886167936 137.76789577414772 169.68 C 137.76789577414772 174.47383206400002 133.88205344920226 178.36 129.088623046875 178.36 C 124.29519264454774 178.36 120.40935031960228 174.47383206400002 120.40935031960228 169.68 Z"/></g><g transform="translate(10,-22) scale(1,1)"><path fill="none" stroke="#000000" d="M 120.40935031960228 169.68 C 120.40935031960228 164.886167936 124.29519264454774 161 129.088623046875 161 C 133.88205344920226 161 137.76789577414772 164.886167936 137.76789577414772 169.68 C 137.76789577414772 174.47383206400002 133.88205344920226 178.36 129.088623046875 178.36 C 124.29519264454774 178.36 120.40935031960228 174.47383206400002 120.40935031960228 169.68 Z" stroke-miterlimit="10"/></g><g transform="translate(10,-22) scale(1,1)"><path fill="none" stroke="#000000" d="M 129.088623046875 178.36 L 129.088623046875 195.64" stroke-miterlimit="10"/></g><g transform="translate(10,-22) scale(1,1)"><path fill="none" stroke="#000000" d="M 119.89880486505683 184.84 L 138.27844122869317 184.84" stroke-miterlimit="10"/></g><g transform="translate(10,-22) scale(1,1)"><path fill="none" stroke="#000000" d="M 129.088623046875 195.64 L 116.32498668323865 213" stroke-miterlimit="10"/></g><g transform="translate(10,-22) scale(1,1)"><path fill="none" stroke="#000000" d="M 129.088623046875 195.64 L 141.85225941051135 213" stroke-miterlimit="10"/></g><g transform="translate(10,-22) scale(1,1)"><g><path fill="none" stroke="none"/><text fill="#000000" stroke="none" font-family="Arial" font-size="13px" font-style="normal" font-weight="bold" text-decoration="none" x="116.088623046875" y="233.5">회원</text></g></g><g transform="translate(10,-22) scale(1,1)"><path fill="none" stroke="#000000" d="M 103 217 L 51 253" stroke-miterlimit="10"/></g><g transform="translate(10,-22) scale(1,1)"><path fill="#FFFFFF" stroke="none" d="M 62.919144802730926 234.50854285970053 L 51 253 L 72.50354285388158 248.35267337802927"/></g><g transform="translate(10,-22) scale(1,1)"><path fill="none" stroke="#000000" d="M 62.919144802730926 234.50854285970053 L 51 253 L 72.50354285388158 248.35267337802927 L 62.919144802730926 234.50854285970053" stroke-miterlimit="10"/></g><g transform="translate(10,-22) scale(1,1)"><path fill="#ffffff" stroke="none" d="M 128.40935031960228 297.68 C 128.40935031960228 292.886167936 132.29519264454774 289 137.088623046875 289 C 141.88205344920226 289 145.76789577414772 292.886167936 145.76789577414772 297.68 C 145.76789577414772 302.473832064 141.88205344920226 306.36 137.088623046875 306.36 C 132.29519264454774 306.36 128.40935031960228 302.473832064 128.40935031960228 297.68 Z"/></g><g transform="translate(10,-22) scale(1,1)"><path fill="none" stroke="#a6682b" d="M 128.40935031960228 297.68 C 128.40935031960228 292.886167936 132.29519264454774 289 137.088623046875 289 C 141.88205344920226 289 145.76789577414772 292.886167936 145.76789577414772 297.68 C 145.76789577414772 302.473832064 141.88205344920226 306.36 137.088623046875 306.36 C 132.29519264454774 306.36 128.40935031960228 302.473832064 128.40935031960228 297.68 Z" stroke-miterlimit="10"/></g><g transform="translate(10,-22) scale(1,1)"><path fill="none" stroke="#a6682b" d="M 137.088623046875 306.36 L 137.088623046875 323.64" stroke-miterlimit="10"/></g><g transform="translate(10,-22) scale(1,1)"><path fill="none" stroke="#a6682b" d="M 127.89880486505683 312.84 L 146.27844122869317 312.84" stroke-miterlimit="10"/></g><g transform="translate(10,-22) scale(1,1)"><path fill="none" stroke="#a6682b" d="M 137.088623046875 323.64 L 124.32498668323865 341" stroke-miterlimit="10"/></g><g transform="translate(10,-22) scale(1,1)"><path fill="none" stroke="#a6682b" d="M 137.088623046875 323.64 L 149.85225941051135 341" stroke-miterlimit="10"/></g><g transform="translate(10,-22) scale(1,1)"><g><path fill="none" stroke="none"/><text fill="#000000" stroke="none" font-family="Arial" font-size="13px" font-style="normal" font-weight="bold" text-decoration="none" x="117.588623046875" y="361.5">비회원</text></g></g><g transform="translate(10,-22) scale(1,1)"><path fill="none" stroke="#000000" d="M 111 314 L 51 284" stroke-miterlimit="10"/></g><g transform="translate(10,-22) scale(1,1)"><path fill="#FFFFFF" stroke="none" d="M 72.94465259387813 285.55955844199497 L 51 284 L 65.41443830992283 300.61998700990557"/></g><g transform="translate(10,-22) scale(1,1)"><path fill="none" stroke="#000000" d="M 72.94465259387813 285.55955844199497 L 51 284 L 65.41443830992283 300.61998700990557 L 72.94465259387813 285.55955844199497" stroke-miterlimit="10"/></g><g transform="translate(10,-22) scale(1,1)"><path fill="none" stroke="#000000" d="M 155 191 L 363 123" stroke-miterlimit="10"/></g><g transform="translate(10,-22) scale(1,1)"><path fill="none" stroke="#000000" d="M 155 197 L 327 181" stroke-miterlimit="10"/></g><g transform="translate(10,-22) scale(1,1)"><path fill="none" stroke="#000000" d="M 155 203 L 327 226" stroke-miterlimit="10"/></g><g transform="translate(10,-22) scale(1,1)"><path fill="none" stroke="#000000" d="M 155 215 L 389 355" stroke-miterlimit="10"/></g><g transform="translate(10,-22) scale(1,1)"><path fill="none" stroke="#000000" d="M 155 221 L 397 422" stroke-miterlimit="10"/></g><g transform="translate(10,-22) scale(1,1)"><path fill="none" stroke="#000000" d="M 155 227 L 402 489" stroke-miterlimit="10"/></g><g transform="translate(10,-22) scale(1,1)"><path fill="none" stroke="#000000" d="M 163 306 L 396 123" stroke-miterlimit="10"/></g><g transform="translate(10,-22) scale(1,1)"><path fill="none" stroke="#000000" d="M 163 313 L 386 190" stroke-miterlimit="10"/></g><g transform="translate(10,-22) scale(1,1)"><path fill="none" stroke="#000000" d="M 163 319 L 361 257" stroke-miterlimit="10"/></g><g transform="translate(10,-22) scale(1,1)"><path fill="none" stroke="#000000" d="M 163 331 L 327 358" stroke-miterlimit="10"/></g><g transform="translate(10,-22) scale(1,1)"><path fill="#C0C0C0" stroke="none" d="M 639 321 C 639 311.6111584 661.6096176 304 689.5 304 C 717.3903824 304 740 311.6111584 740 321 C 740 330.3888416 717.3903824 338 689.5 338 C 661.6096176 338 639 330.3888416 639 321 Z" opacity="0.2"/></g><g transform="translate(10,-22) scale(1,1)"><path fill="#548f54" stroke="none" d="M 632 314 C 632 304.6111584 654.6096176 297 682.5 297 C 710.3903824 297 733 304.6111584 733 314 C 733 323.3888416 710.3903824 331 682.5 331 C 654.6096176 331 632 323.3888416 632 314 Z"/></g><g transform="translate(10,-22) scale(1,1)"><path fill="none" stroke="#000000" d="M 632 314 C 632 304.6111584 654.6096176 297 682.5 297 C 710.3903824 297 733 304.6111584 733 314 C 733 323.3888416 710.3903824 331 682.5 331 C 654.6096176 331 632 323.3888416 632 314 Z" stroke-miterlimit="10"/></g><g transform="translate(10,-22) scale(1,1)"><g><path fill="none" stroke="none"/><text fill="#000000" stroke="none" font-family="Arial" font-size="13px" font-style="normal" font-weight="bold" text-decoration="none" x="663" y="321">로그인</text></g></g><g transform="translate(10,-22) scale(1,1)"><path fill="none" stroke="#000000" d="M 444 489 L 657 332" stroke-miterlimit="10" stroke-dasharray="3"/></g><g transform="translate(10,-22) scale(1,1)"><path fill="none" stroke="#000000" d="M 651.317069227243 341.4182959091362 L 657 332 L 646.3218202089981 334.6413020181415" stroke-miterlimit="10"/></g><g transform="translate(10,-22) scale(1,1)"><g><path fill="none" stroke="none"/><text fill="#000000" stroke="none" font-family="Arial" font-size="13px" font-style="normal" font-weight="normal" text-decoration="none" x="504.5" y="391.5">«include»</text></g></g><g transform="translate(10,-22) scale(1,1)"><path fill="none" stroke="#000000" d="M 457 422 L 644 332" stroke-miterlimit="10" stroke-dasharray="3"/></g><g transform="translate(10,-22) scale(1,1)"><path fill="none" stroke="#000000" d="M 636.6682488462081 340.2003307871617 L 644 332 L 633.0171595336067 332.61417854875634" stroke-miterlimit="10"/></g><g transform="translate(10,-22) scale(1,1)"><g><path fill="none" stroke="none"/><text fill="#000000" stroke="none" font-family="Arial" font-size="13px" font-style="normal" font-weight="normal" text-decoration="none" x="509.5" y="355.5">«include»</text></g></g><g transform="translate(10,-22) scale(1,1)"><path fill="#C0C0C0" stroke="none" d="M 327 667.5 C 327 654.5213072 369.7568016 644 422.5 644 C 475.2431984 644 518 654.5213072 518 667.5 C 518 680.4786928 475.2431984 691 422.5 691 C 369.7568016 691 327 680.4786928 327 667.5 Z" opacity="0.2"/></g><g transform="translate(10,-22) scale(1,1)"><path fill="#ffffff" stroke="none" d="M 320 660.5 C 320 647.5213072 362.7568016 637 415.5 637 C 468.2431984 637 511 647.5213072 511 660.5 C 511 673.4786928 468.2431984 684 415.5 684 C 362.7568016 684 320 673.4786928 320 660.5 Z"/></g><g transform="translate(10,-22) scale(1,1)"><path fill="none" stroke="#000000" d="M 320 660.5 C 320 647.5213072 362.7568016 637 415.5 637 C 468.2431984 637 511 647.5213072 511 660.5 C 511 673.4786928 468.2431984 684 415.5 684 C 362.7568016 684 320 673.4786928 320 660.5 Z" stroke-miterlimit="10"/></g><g transform="translate(10,-22) scale(1,1)"><g><path fill="none" stroke="none"/><text fill="#000000" stroke="none" font-family="Arial" font-size="13px" font-style="normal" font-weight="bold" text-decoration="none" x="387.694091796875" y="667.5">회원 가입</text></g></g><g transform="translate(10,-22) scale(1,1)"><path fill="none" stroke="#000000" d="M 163 358 L 395 636" stroke-miterlimit="10"/></g><g transform="translate(10,-22) scale(1,1)"><path fill="#C0C0C0" stroke="none" d="M 607 595.5 C 607 582.5213072 638.5639216 572 677.5 572 C 716.4360784 572 748 582.5213072 748 595.5 C 748 608.4786928 716.4360784 619 677.5 619 C 638.5639216 619 607 608.4786928 607 595.5 Z" opacity="0.2"/></g><g transform="translate(10,-22) scale(1,1)"><path fill="#ffffff" stroke="none" d="M 600 588.5 C 600 575.5213072 631.5639216 565 670.5 565 C 709.4360784 565 741 575.5213072 741 588.5 C 741 601.4786928 709.4360784 612 670.5 612 C 631.5639216 612 600 601.4786928 600 588.5 Z"/></g><g transform="translate(10,-22) scale(1,1)"><path fill="none" stroke="#000000" d="M 600 588.5 C 600 575.5213072 631.5639216 565 670.5 565 C 709.4360784 565 741 575.5213072 741 588.5 C 741 601.4786928 709.4360784 612 670.5 612 C 631.5639216 612 600 601.4786928 600 588.5 Z" stroke-miterlimit="10"/></g><g transform="translate(10,-22) scale(1,1)"><g><path fill="none" stroke="none"/><text fill="#000000" stroke="none" font-family="Arial" font-size="13px" font-style="normal" font-weight="bold" text-decoration="none" x="625" y="595.5">아이디중복확인</text></g></g><g transform="translate(10,-22) scale(1,1)"><path fill="none" stroke="#000000" d="M 500 636 L 599 608" stroke-miterlimit="10" stroke-dasharray="3"/></g><g transform="translate(10,-22) scale(1,1)"><path fill="none" stroke="#000000" d="M 590.3665561032628 614.8164247580305 L 599 608 L 588.0752931057723 606.7151734454748" stroke-miterlimit="10"/></g><g transform="translate(10,-22) scale(1,1)"><g><path fill="none" stroke="none"/><text fill="#000000" stroke="none" font-family="Arial" font-size="13px" font-style="normal" font-weight="normal" text-decoration="none" x="512.5" y="599.5">«include»</text></g></g><g transform="translate(10,-22) scale(1,1)"><path fill="#C0C0C0" stroke="none" d="M 495 741 C 495 731.6111584 538.2045168 724 591.5 724 C 644.7954832 724 688 731.6111584 688 741 C 688 750.3888416 644.7954832 758 591.5 758 C 538.2045168 758 495 750.3888416 495 741 Z" opacity="0.2"/></g><g transform="translate(10,-22) scale(1,1)"><path fill="#ffffff" stroke="none" d="M 488 734 C 488 724.6111584 531.2045168 717 584.5 717 C 637.7954832 717 681 724.6111584 681 734 C 681 743.3888416 637.7954832 751 584.5 751 C 531.2045168 751 488 743.3888416 488 734 Z"/></g><g transform="translate(10,-22) scale(1,1)"><path fill="none" stroke="#000000" d="M 488 734 C 488 724.6111584 531.2045168 717 584.5 717 C 637.7954832 717 681 724.6111584 681 734 C 681 743.3888416 637.7954832 751 584.5 751 C 531.2045168 751 488 743.3888416 488 734 Z" stroke-miterlimit="10"/></g><g transform="translate(10,-22) scale(1,1)"><g><path fill="none" stroke="none"/><text fill="#000000" stroke="none" font-family="Arial" font-size="13px" font-style="normal" font-weight="bold" text-decoration="none" x="520.582275390625" y="741">회원의 부가 정보 입력</text></g></g><g transform="translate(10,-22) scale(1,1)"><path fill="none" stroke="#000000" d="M 472 685 L 543 716" stroke-miterlimit="10" stroke-dasharray="3"/></g><g transform="translate(10,-22) scale(1,1)"><path fill="none" stroke="#000000" d="M 532.0019796475523 715.7913176405492 L 543 716 L 535.3707859406383 708.0756645176749" stroke-miterlimit="10"/></g><g transform="translate(10,-22) scale(1,1)"><g><path fill="none" stroke="none"/><text fill="#000000" stroke="none" font-family="Arial" font-size="13px" font-style="normal" font-weight="normal" text-decoration="none" x="492.5" y="678.5">«extend»</text></g></g><g transform="translate(10,-22) scale(1,1)"><path fill="none" stroke="#000000" d="M 668 332 L 434 636" stroke-miterlimit="10" stroke-dasharray="3"/></g><g transform="translate(10,-22) scale(1,1)"><path fill="none" stroke="#000000" d="M 436.86310359631767 625.3791413813782 L 434 636 L 443.5346011194469 630.5144388169448" stroke-miterlimit="10"/></g><g transform="translate(10,-22) scale(1,1)"><g><path fill="none" stroke="none"/><text fill="#000000" stroke="none" font-family="Arial" font-size="13px" font-style="normal" font-weight="normal" text-decoration="none" x="547.5" y="508.5">«extend»</text></g></g></g></svg>